<svg width="24" height="24" viewBox="0 0 24 24" fill="none" xmlns="http://www.w3.org/2000/svg">
<path d="M21.25 11.7812C21.1458 9.26042 20.2187 7.125 18.4688 5.375C16.7187 3.625 14.5833 2.69792 12.0625 2.59375V0.71875C13.5625 0.760417 14.974 1.07813 16.2969 1.67188C17.6198 2.26562 18.7812 3.0625 19.7812 4.0625C20.7812 5.0625 21.5781 6.22396 22.1719 7.54688C22.7656 8.86979 23.0833 10.2812 23.125 11.7812H21.25ZM15.9688 11.7812C15.8646 10.7396 15.4479 9.85938 14.7188 9.14062C13.9896 8.42187 13.1042 8.01042 12.0625 7.90625V6.03125C13.625 6.13542 14.9531 6.72917 16.0469 7.8125C17.1406 8.89583 17.7396 10.2188 17.8438 11.7812H15.9688ZM21.8438 23.25C19.3021 23.25 16.776 22.625 14.2656 21.375C11.7552 20.125 9.5 18.5 7.5 16.5C5.5 14.5 3.875 12.2448 2.625 9.73438C1.375 7.22396 0.75 4.69792 0.75 2.15625C0.75 1.76042 0.885417 1.42708 1.15625 1.15625C1.42708 0.885417 1.76042 0.75 2.15625 0.75H6.53125C6.82292 0.75 7.07813 0.848958 7.29688 1.04688C7.51562 1.24479 7.65625 1.51042 7.71875 1.84375L8.5625 5.78125C8.60417 6.07292 8.59896 6.33854 8.54688 6.57812C8.49479 6.81771 8.38542 7.02083 8.21875 7.1875L5.09375 10.3438C6.26042 12.2812 7.56771 13.9688 9.01562 15.4062C10.4635 16.8438 12.1042 18.0625 13.9375 19.0625L16.9062 16C17.1146 15.7708 17.3542 15.6094 17.625 15.5156C17.8958 15.4219 18.1667 15.4062 18.4375 15.4687L22.1562 16.2813C22.4688 16.3438 22.7292 16.5 22.9375 16.75C23.1458 17 23.25 17.2917 23.25 17.625V21.8438C23.25 22.2396 23.1146 22.5729 22.8438 22.8437C22.5729 23.1146 22.2396 23.25 21.8438 23.25ZM4.15625 8.625L6.6875 6.0625L5.96875 2.625H2.625C2.625 3.4375 2.75 4.32812 3 5.29688C3.25 6.26562 3.63542 7.375 4.15625 8.625ZM15.6875 19.9688C16.5417 20.3646 17.4687 20.6875 18.4688 20.9375C19.4688 21.1875 20.4375 21.3333 21.375 21.375V18.0312L18.1562 17.375L15.6875 19.9688Z" fill="#E85959"/>
</svg>
