<svg width="28" height="24" viewBox="0 0 28 24" fill="none" xmlns="http://www.w3.org/2000/svg">
<path d="M12.6875 14.0938L19.3125 7.46875L17.9688 6.15625L12.6875 11.4688L10.0312 8.8125L8.6875 10.125L12.6875 14.0938ZM0.25 23.25V21.375H27.75V23.25H0.25ZM3.375 19.5C2.875 19.5 2.4375 19.3125 2.0625 18.9375C1.6875 18.5625 1.5 18.125 1.5 17.625V2.625C1.5 2.125 1.6875 1.6875 2.0625 1.3125C2.4375 0.9375 2.875 0.75 3.375 0.75H24.625C25.125 0.75 25.5625 0.9375 25.9375 1.3125C26.3125 1.6875 26.5 2.125 26.5 2.625V17.625C26.5 18.125 26.3125 18.5625 25.9375 18.9375C25.5625 19.3125 25.125 19.5 24.625 19.5H3.375ZM3.375 17.625H24.625V2.625H3.375V17.625ZM3.375 17.625V2.625V17.625Z" fill="#E85959"/>
</svg>
