<svg width="30" height="31" viewBox="0 0 30 31" fill="none" xmlns="http://www.w3.org/2000/svg">
<path d="M29.3725 5.26085C29.203 4.35477 28.8688 3.52779 28.4032 2.86273C27.9378 2.19766 27.3573 1.71786 26.72 1.47137C24.3813 0.575439 15 0.575439 15 0.575439C15 0.575439 5.61875 0.575439 3.27875 1.47137C2.64176 1.7183 2.06162 2.19828 1.59635 2.86328C1.13108 3.52831 0.796989 4.35506 0.6275 5.26085C0 8.60325 0 15.5755 0 15.5755C0 15.5755 0 22.5477 0.6275 25.8901C0.796983 26.7962 1.13122 27.6232 1.59674 28.2882C2.06226 28.9532 2.64272 29.433 3.28 29.6796C5.61875 30.5754 15 30.5754 15 30.5754C15 30.5754 24.3813 30.5754 26.7213 29.6796C27.3586 29.4333 27.9391 28.9535 28.4047 28.2884C28.8702 27.6233 29.2043 26.7962 29.3738 25.8901C30 22.5477 30 15.5755 30 15.5755C30 15.5755 30 8.60325 29.3725 5.26085ZM11.9313 21.9054V9.24552L19.7725 15.5755L11.9313 21.9054Z" fill="white"/>
</svg>
