<svg width="26" height="26" viewBox="0 0 26 26" fill="none" xmlns="http://www.w3.org/2000/svg">
<path d="M13 25.5C11.2708 25.5 9.64583 25.1719 8.125 24.5156C6.60417 23.8594 5.28125 22.9688 4.15625 21.8438C3.03125 20.7188 2.14062 19.3958 1.48437 17.875C0.828125 16.3542 0.5 14.7292 0.5 13C0.5 11.2708 0.828125 9.64583 1.48437 8.125C2.14062 6.60417 3.03125 5.28125 4.15625 4.15625C5.28125 3.03125 6.60417 2.14062 8.125 1.48437C9.64583 0.828125 11.2708 0.5 13 0.5C14.7292 0.5 16.3542 0.828125 17.875 1.48437C19.3958 2.14062 20.7188 3.03125 21.8438 4.15625C22.9688 5.28125 23.8594 6.60417 24.5156 8.125C25.1719 9.64583 25.5 11.2708 25.5 13C25.5 14.7292 25.1719 16.3542 24.5156 17.875C23.8594 19.3958 22.9688 20.7188 21.8438 21.8438C20.7188 22.9688 19.3958 23.8594 17.875 24.5156C16.3542 25.1719 14.7292 25.5 13 25.5ZM11.6562 23.5938V21.0312C10.9271 21.0312 10.3125 20.7604 9.8125 20.2188C9.3125 19.6771 9.0625 19.0417 9.0625 18.3125V16.9375L2.65625 10.5312C2.55208 10.9479 2.47917 11.3594 2.4375 11.7656C2.39583 12.1719 2.375 12.5833 2.375 13C2.375 15.7083 3.25521 18.0729 5.01562 20.0938C6.77604 22.1146 8.98958 23.2812 11.6562 23.5938ZM20.8438 20.2188C21.3021 19.7188 21.7031 19.1875 22.0469 18.625C22.3906 18.0625 22.6823 17.474 22.9219 16.8594C23.1615 16.2448 23.3385 15.6146 23.4531 14.9688C23.5677 14.3229 23.625 13.6667 23.625 13C23.625 10.7917 23.0208 8.78646 21.8125 6.98438C20.6042 5.18229 18.9896 3.86458 16.9688 3.03125V3.59375C16.9688 4.32292 16.7188 4.95833 16.2188 5.5C15.7188 6.04167 15.1042 6.3125 14.375 6.3125H11.6562V9.03125C11.6562 9.38542 11.5156 9.67708 11.2344 9.90625C10.9531 10.1354 10.6354 10.25 10.2812 10.25H7.6875V13H15.75C16.1042 13 16.3958 13.1354 16.625 13.4062C16.8542 13.6771 16.9688 13.9896 16.9688 14.3438V18.3125H18.3125C18.9167 18.3125 19.4479 18.4896 19.9062 18.8438C20.3646 19.1979 20.6771 19.6562 20.8438 20.2188Z" fill="#E85959"/>
</svg>
