<svg width="18" height="28" viewBox="0 0 18 28" fill="none" xmlns="http://www.w3.org/2000/svg">
<path d="M1.875 27.5C1.375 27.5 0.9375 27.3125 0.5625 26.9375C0.1875 26.5625 0 26.125 0 25.625V1.875C0 1.375 0.1875 0.9375 0.5625 0.5625C0.9375 0.1875 1.375 0 1.875 0H15.625C16.125 0 16.5625 0.1875 16.9375 0.5625C17.3125 0.9375 17.5 1.375 17.5 1.875V25.625C17.5 26.125 17.3125 26.5625 16.9375 26.9375C16.5625 27.3125 16.125 27.5 15.625 27.5H1.875ZM1.875 24.6875V25.625H15.625V24.6875H1.875ZM1.875 22.8125H15.625V4.6875H1.875V22.8125ZM1.875 2.8125H15.625V1.875H1.875V2.8125ZM1.875 2.8125V1.875V2.8125ZM1.875 24.6875V25.625V24.6875Z" fill="#E85959"/>
</svg>
