<svg width="27" height="26" viewBox="0 0 27 26" fill="none" xmlns="http://www.w3.org/2000/svg">
<path d="M18.75 8.25C17.7917 7.29167 17.0104 6.15625 16.4062 4.84375C15.8021 3.53125 15.4896 2.30208 15.4688 1.15625C15.4688 0.90625 15.5625 0.692708 15.75 0.515625C15.9375 0.338542 16.1667 0.25 16.4375 0.25C16.6667 0.25 16.8698 0.338542 17.0469 0.515625C17.224 0.692708 17.3333 0.927083 17.375 1.21875C17.4792 2.30208 17.7656 3.32813 18.2344 4.29688C18.7031 5.26562 19.3229 6.13542 20.0938 6.90625C20.8646 7.67708 21.7344 8.29167 22.7031 8.75C23.6719 9.20833 24.6979 9.48958 25.7812 9.59375C26.0729 9.63542 26.3073 9.75 26.4844 9.9375C26.6615 10.125 26.75 10.3333 26.75 10.5625C26.75 10.8333 26.6615 11.0573 26.4844 11.2344C26.3073 11.4115 26.0938 11.5 25.8438 11.5C24.7188 11.5 23.4948 11.1979 22.1719 10.5938C20.849 9.98958 19.7083 9.20833 18.75 8.25ZM22.75 4.28125C22.2708 3.80208 21.8854 3.26562 21.5938 2.67188C21.3021 2.07812 21.1562 1.54167 21.1562 1.0625C21.1562 0.833333 21.2396 0.640625 21.4062 0.484375C21.5729 0.328125 21.7812 0.25 22.0312 0.25C22.2604 0.25 22.474 0.338542 22.6719 0.515625C22.8698 0.692708 23 0.916667 23.0625 1.1875C23.1458 1.52083 23.2708 1.83333 23.4375 2.125C23.6042 2.41667 23.8125 2.6875 24.0625 2.9375C24.3125 3.1875 24.5885 3.39583 24.8906 3.5625C25.1927 3.72917 25.5208 3.85417 25.875 3.9375C26.1458 4 26.3646 4.13542 26.5312 4.34375C26.6979 4.55208 26.7812 4.77083 26.7812 5C26.7812 5.22917 26.7031 5.42708 26.5469 5.59375C26.3906 5.76042 26.1979 5.84375 25.9688 5.84375C25.4688 5.84375 24.9271 5.70312 24.3438 5.42188C23.7604 5.14062 23.2292 4.76042 22.75 4.28125ZM10.5 15.2188C9.125 15.2188 8 14.7812 7.125 13.9062C6.25 13.0312 5.8125 11.9063 5.8125 10.5312C5.8125 9.15625 6.25 8.03125 7.125 7.15625C8 6.28125 9.125 5.84375 10.5 5.84375C11.875 5.84375 13 6.28125 13.875 7.15625C14.75 8.03125 15.1875 9.15625 15.1875 10.5312C15.1875 11.9063 14.75 13.0312 13.875 13.9062C13 14.7812 11.875 15.2188 10.5 15.2188ZM2.375 25.25C1.85417 25.25 1.41146 25.0677 1.04688 24.7031C0.682292 24.3385 0.5 23.8958 0.5 23.375V22.3125C0.5 21.5208 0.697917 20.849 1.09375 20.2969C1.48958 19.7448 2 19.3125 2.625 19C3.6875 18.4583 4.94271 18.0104 6.39062 17.6562C7.83854 17.3021 9.20833 17.125 10.5 17.125C11.7917 17.125 13.1562 17.3021 14.5938 17.6562C16.0312 18.0104 17.2812 18.4583 18.3438 19C18.9688 19.3125 19.4844 19.7448 19.8906 20.2969C20.2969 20.849 20.5 21.5208 20.5 22.3125V23.375C20.5 23.8958 20.3177 24.3385 19.9531 24.7031C19.5885 25.0677 19.1458 25.25 18.625 25.25H2.375ZM2.375 23.375H18.625V22.3125C18.625 21.9792 18.5365 21.6719 18.3594 21.3906C18.1823 21.1094 17.9271 20.875 17.5938 20.6875C16.5938 20.125 15.4583 19.7031 14.1875 19.4219C12.9167 19.1406 11.6875 19 10.5 19C9.3125 19 8.07812 19.151 6.79688 19.4531C5.51562 19.7552 4.375 20.1667 3.375 20.6875C3.08333 20.8333 2.84375 21.0573 2.65625 21.3594C2.46875 21.6615 2.375 21.9792 2.375 22.3125V23.375ZM10.5 13.3438C11.3125 13.3438 11.9844 13.0781 12.5156 12.5469C13.0469 12.0156 13.3125 11.3438 13.3125 10.5312C13.3125 9.71875 13.0469 9.04688 12.5156 8.51562C11.9844 7.98438 11.3125 7.71875 10.5 7.71875C9.6875 7.71875 9.01562 7.98438 8.48438 8.51562C7.95312 9.04688 7.6875 9.71875 7.6875 10.5312C7.6875 11.3438 7.95312 12.0156 8.48438 12.5469C9.01562 13.0781 9.6875 13.3438 10.5 13.3438Z" fill="#E85959"/>
</svg>
