<svg width="16" height="30" viewBox="0 0 16 30" fill="none" xmlns="http://www.w3.org/2000/svg">
<path d="M2.33317 29.1666C1.93178 29.1666 1.59532 29.0309 1.3238 28.7594C1.05227 28.4878 0.916504 28.1514 0.916504 27.75V5.08331C0.916504 4.68192 1.05227 4.34547 1.3238 4.07394C1.59532 3.80241 1.93178 3.66665 2.33317 3.66665H5.1665V1.89581C5.1665 1.58887 5.26685 1.33505 5.46755 1.13435C5.66824 0.93366 5.92206 0.833313 6.229 0.833313H9.77067C10.0776 0.833313 10.3314 0.93366 10.5321 1.13435C10.7328 1.33505 10.8332 1.58887 10.8332 1.89581V3.66665H13.6665C14.0679 3.66665 14.4044 3.80241 14.6759 4.07394C14.9474 4.34547 15.0832 4.68192 15.0832 5.08331V27.75C15.0832 28.1514 14.9474 28.4878 14.6759 28.7594C14.4044 29.0309 14.0679 29.1666 13.6665 29.1666H2.33317ZM7.929 23.2166L11.329 16.8771C11.4234 16.6882 11.4175 16.5111 11.3113 16.3458C11.205 16.1805 11.0575 16.0979 10.8686 16.0979H9.02692V11.3521C9.02692 11.0687 8.89116 10.8857 8.61963 10.8031C8.3481 10.7205 8.15331 10.809 8.03525 11.0687L4.63525 17.4083C4.54081 17.5972 4.54671 17.7743 4.65296 17.9396C4.75921 18.1048 4.90678 18.1875 5.09567 18.1875H6.93734V22.9333C6.93734 23.2166 7.0731 23.3996 7.34463 23.4823C7.61616 23.5649 7.81095 23.4764 7.929 23.2166Z" fill="#E85959"/>
</svg>
