<svg width="30" height="31" viewBox="0 0 30 31" fill="none" xmlns="http://www.w3.org/2000/svg">
<path d="M15 0.26001C10.925 0.26001 10.4163 0.27876 8.81625 0.35001C7.21875 0.42501 6.13125 0.67626 5.175 1.04751C4.18875 1.43001 3.35125 1.94376 2.5175 2.77751C1.68375 3.61126 1.16875 4.44751 0.7875 5.43501C0.41625 6.39126 0.16375 7.47876 0.09 9.07626C0.015 10.6763 0 11.185 0 15.26C0 19.335 0.01875 19.8437 0.09 21.4438C0.165 23.04 0.41625 24.1288 0.7875 25.085C1.17 26.07 1.68375 26.9087 2.5175 27.7425C3.35125 28.575 4.1875 29.0912 5.175 29.4725C6.1325 29.8425 7.22 30.0962 8.81625 30.17C10.4163 30.245 10.925 30.26 15 30.26C19.075 30.26 19.5837 30.2413 21.1838 30.17C22.78 30.095 23.8687 29.8425 24.825 29.4725C25.81 29.09 26.6487 28.575 27.4825 27.7425C28.315 26.9087 28.8312 26.0738 29.2125 25.085C29.5825 24.1288 29.8362 23.04 29.91 21.4438C29.985 19.8437 30 19.335 30 15.26C30 11.185 29.9812 10.6763 29.91 9.07626C29.835 7.48001 29.5825 6.39001 29.2125 5.43501C28.83 4.44876 28.315 3.61126 27.4825 2.77751C26.6487 1.94376 25.8138 1.42876 24.825 1.04751C23.8687 0.67626 22.78 0.42376 21.1838 0.35001C19.5837 0.27501 19.075 0.26001 15 0.26001ZM15 2.96001C19.0038 2.96001 19.4812 2.98001 21.0625 3.04876C22.525 3.11751 23.3187 3.36001 23.8463 3.56751C24.5487 3.83876 25.0462 4.16376 25.5738 4.68751C26.0975 5.21251 26.4225 5.71126 26.6937 6.41376C26.8988 6.94126 27.1437 7.73501 27.21 9.19751C27.2812 10.78 27.2975 11.255 27.2975 15.26C27.2975 19.265 27.2787 19.7413 27.205 21.3225C27.1287 22.785 26.885 23.5787 26.6787 24.1063C26.3988 24.8087 26.08 25.3063 25.555 25.8338C25.0312 26.3575 24.525 26.6825 23.83 26.9537C23.305 27.1588 22.4988 27.4037 21.0363 27.47C19.4438 27.5413 18.975 27.5575 14.9625 27.5575C10.9488 27.5575 10.48 27.5387 8.88875 27.465C7.425 27.3887 6.61875 27.145 6.09375 26.9387C5.3825 26.6588 4.89375 26.34 4.37 25.815C3.84375 25.2913 3.5075 24.785 3.245 24.09C3.03875 23.565 2.79625 22.7588 2.72 21.2963C2.66375 19.7213 2.64375 19.235 2.64375 15.2413C2.64375 11.2463 2.66375 10.7588 2.72 9.16501C2.79625 7.70251 3.03875 6.89751 3.245 6.37251C3.5075 5.66001 3.84375 5.17251 4.37 4.64626C4.89375 4.12251 5.3825 3.78501 6.09375 3.52376C6.61875 3.31626 7.4075 3.07251 8.87 2.99751C10.4637 2.94126 10.9325 2.92251 14.9437 2.92251L15 2.96001ZM15 7.55751C10.7437 7.55751 7.2975 11.0075 7.2975 15.26C7.2975 19.5163 10.7475 22.9625 15 22.9625C19.2563 22.9625 22.7025 19.5125 22.7025 15.26C22.7025 11.0038 19.2525 7.55751 15 7.55751ZM15 20.26C12.2375 20.26 10 18.0225 10 15.26C10 12.4975 12.2375 10.26 15 10.26C17.7625 10.26 20 12.4975 20 15.26C20 18.0225 17.7625 20.26 15 20.26ZM24.8075 7.25376C24.8075 8.24751 24 9.05376 23.0075 9.05376C22.0137 9.05376 21.2075 8.24626 21.2075 7.25376C21.2075 6.26126 22.015 5.45501 23.0075 5.45501C23.9988 5.45376 24.8075 6.26126 24.8075 7.25376Z" fill="white"/>
</svg>
