<svg width="30" height="30" viewBox="0 0 30 30" fill="none" xmlns="http://www.w3.org/2000/svg">
<path d="M8.66667 30H2.5C1.83333 30 1.25 29.75 0.75 29.25C0.25 28.75 0 28.1667 0 27.5V15C0 12.9167 0.395833 10.9653 1.1875 9.14583C1.97917 7.32639 3.04861 5.74306 4.39583 4.39583C5.74306 3.04861 7.32639 1.97917 9.14583 1.1875C10.9653 0.395833 12.9167 0 15 0C17.0833 0 19.0347 0.395833 20.8542 1.1875C22.6736 1.97917 24.2569 3.04861 25.6042 4.39583C26.9514 5.74306 28.0208 7.32639 28.8125 9.14583C29.6042 10.9653 30 12.9167 30 15V27.5C30 28.1667 29.75 28.75 29.25 29.25C28.75 29.75 28.1667 30 27.5 30H21.3333V17.6667H27.5V15C27.5 11.5278 26.2847 8.57639 23.8542 6.14583C21.4236 3.71528 18.4722 2.5 15 2.5C11.5278 2.5 8.57639 3.71528 6.14583 6.14583C3.71528 8.57639 2.5 11.5278 2.5 15V17.6667H8.66667V30ZM6.16667 20.1667H2.5V27.5H6.16667V20.1667ZM23.8333 20.1667V27.5H27.5V20.1667H23.8333ZM23.8333 20.1667H27.5H23.8333ZM6.16667 20.1667H2.5H6.16667Z" fill="#E85959"/>
</svg>
