<svg width="31" height="28" viewBox="0 0 31 28" fill="none" xmlns="http://www.w3.org/2000/svg">
<path d="M1.15733 7.1875C0.829762 7.1875 0.558887 7.09896 0.344707 6.92188C0.130528 6.74479 0.0234375 6.52083 0.0234375 6.25V1.8125C0.0234375 1.60417 0.111629 1.42708 0.288013 1.28125C0.464396 1.13542 0.691175 1.0625 0.968349 1.0625C1.24552 1.0625 1.466 1.13021 1.62979 1.26562C1.79357 1.40104 1.87546 1.58333 1.87546 1.8125V4.25C3.71489 2.9375 5.7622 1.94271 8.01739 1.26562C10.2726 0.588542 12.6223 0.25 15.0664 0.25C17.5106 0.25 19.8729 0.588542 22.1533 1.26562C24.4336 1.94271 26.5061 2.9375 28.3708 4.25V1.84375C28.3708 1.61458 28.459 1.42708 28.6353 1.28125C28.8117 1.13542 29.0385 1.0625 29.3157 1.0625C29.5929 1.0625 29.8196 1.13542 29.996 1.28125C30.1724 1.42708 30.2606 1.61458 30.2606 1.84375V6.25C30.2606 6.52083 30.1535 6.74479 29.9393 6.92188C29.7251 7.09896 29.4543 7.1875 29.1267 7.1875H23.9486C23.6966 7.1875 23.4824 7.11458 23.306 6.96875C23.1297 6.82292 23.0415 6.63542 23.0415 6.40625C23.0415 6.17708 23.1297 5.99479 23.306 5.85938C23.4824 5.72396 23.7092 5.65625 23.9864 5.65625H27.577C25.8384 4.40625 23.8982 3.42708 21.7564 2.71875C19.6146 2.01042 17.3846 1.65625 15.0664 1.65625C12.7734 1.65625 10.5686 2.01042 8.45204 2.71875C6.33544 3.42708 4.40782 4.40625 2.66919 5.65625H6.29765C6.54962 5.65625 6.7638 5.72396 6.94019 5.85938C7.11657 5.99479 7.20476 6.17708 7.20476 6.40625C7.20476 6.63542 7.12287 6.82292 6.95908 6.96875C6.7953 7.11458 6.57482 7.1875 6.29765 7.1875H1.15733ZM12.9498 27.75C12.5215 27.75 12.1183 27.6823 11.7403 27.5469C11.3624 27.4115 11.0348 27.2292 10.7576 27L4.78579 22.0625C4.40782 21.75 4.18105 21.2865 4.10545 20.6719C4.02986 20.0573 4.19365 19.5208 4.59681 19.0625C5.02517 18.5833 5.52282 18.2604 6.08977 18.0938C6.65671 17.9271 7.17956 17.8958 7.65832 18L10.6064 18.5625V8.375C10.6064 7.5 10.9718 6.76042 11.7025 6.15625C12.4333 5.55208 13.3278 5.25 14.3861 5.25C15.4444 5.25 16.3389 5.55208 17.0696 6.15625C17.8004 6.76042 18.1657 7.5 18.1657 8.375V13.75H19.1484C19.2744 13.75 19.3878 13.7708 19.4886 13.8125C19.5894 13.8542 19.7028 13.8958 19.8288 13.9375L25.4226 16.1875C26.0274 16.4167 26.4746 16.7865 26.7644 17.2969C27.0542 17.8073 27.1361 18.3333 27.0101 18.875L25.6494 25.6875C25.5234 26.2917 25.1707 26.7865 24.5911 27.1719C24.0116 27.5573 23.3564 27.75 22.6257 27.75H12.9498ZM12.6475 25.875H23.2682L24.8935 18.0938L17.9767 15.25H15.8979V8.375C15.8979 8 15.7594 7.69792 15.4822 7.46875C15.205 7.23958 14.8396 7.125 14.3861 7.125C13.9325 7.125 13.5672 7.23958 13.29 7.46875C13.0128 7.69792 12.8742 8 12.8742 8.375V20.8438L7.05358 19.8125L6.18426 20.5312L12.6475 25.875ZM23.2682 25.875H12.6475H23.2682Z" fill="#E85959"/>
</svg>
