<svg width="18" height="28" viewBox="0 0 18 28" fill="none" xmlns="http://www.w3.org/2000/svg">
<path d="M2.125 27.75C1.625 27.75 1.1875 27.5625 0.8125 27.1875C0.4375 26.8125 0.25 26.375 0.25 25.875V2.125C0.25 1.625 0.4375 1.1875 0.8125 0.8125C1.1875 0.4375 1.625 0.25 2.125 0.25H15.875C16.375 0.25 16.8125 0.4375 17.1875 0.8125C17.5625 1.1875 17.75 1.625 17.75 2.125V25.875C17.75 26.375 17.5625 26.8125 17.1875 27.1875C16.8125 27.5625 16.375 27.75 15.875 27.75H2.125ZM2.125 24.9375V25.875H15.875V24.9375H2.125ZM2.125 23.0625H15.875V4.9375H2.125V23.0625ZM2.125 3.0625H15.875V2.125H2.125V3.0625ZM2.125 3.0625V2.125V3.0625ZM2.125 24.9375V25.875V24.9375Z" fill="#E85959"/>
</svg>
