<svg width="26" height="25" viewBox="0 0 26 25" fill="none" xmlns="http://www.w3.org/2000/svg">
<path d="M7.65625 17.8438C7.84375 18.0312 8.0625 18.125 8.3125 18.125C8.5625 18.125 8.78125 18.0312 8.96875 17.8438L13 13.8125L17.0625 17.875C17.2292 18.0417 17.4427 18.1198 17.7031 18.1094C17.9635 18.099 18.1771 18.0104 18.3438 17.8438C18.5312 17.6562 18.625 17.4375 18.625 17.1875C18.625 16.9375 18.5312 16.7188 18.3438 16.5312L14.3125 12.5L18.375 8.4375C18.5417 8.27083 18.6198 8.05729 18.6094 7.79688C18.599 7.53646 18.5104 7.32292 18.3438 7.15625C18.1562 6.96875 17.9375 6.875 17.6875 6.875C17.4375 6.875 17.2188 6.96875 17.0312 7.15625L13 11.1875L8.9375 7.125C8.77083 6.95833 8.55729 6.88021 8.29688 6.89062C8.03646 6.90104 7.82292 6.98958 7.65625 7.15625C7.46875 7.34375 7.375 7.5625 7.375 7.8125C7.375 8.0625 7.46875 8.28125 7.65625 8.46875L11.6875 12.5L7.625 16.5625C7.45833 16.7292 7.38021 16.9427 7.39062 17.2031C7.40104 17.4635 7.48958 17.6771 7.65625 17.8438ZM13 25C11.2292 25 9.58333 24.6823 8.0625 24.0469C6.54167 23.4115 5.21875 22.5312 4.09375 21.4062C2.96875 20.2812 2.08854 18.9583 1.45313 17.4375C0.817708 15.9167 0.5 14.2708 0.5 12.5C0.5 10.75 0.817708 9.11458 1.45313 7.59375C2.08854 6.07292 2.96875 4.75 4.09375 3.625C5.21875 2.5 6.54167 1.61458 8.0625 0.96875C9.58333 0.322917 11.2292 0 13 0C14.75 0 16.3854 0.322917 17.9062 0.96875C19.4271 1.61458 20.75 2.5 21.875 3.625C23 4.75 23.8854 6.07292 24.5312 7.59375C25.1771 9.11458 25.5 10.75 25.5 12.5C25.5 14.2708 25.1771 15.9167 24.5312 17.4375C23.8854 18.9583 23 20.2812 21.875 21.4062C20.75 22.5312 19.4271 23.4115 17.9062 24.0469C16.3854 24.6823 14.75 25 13 25ZM13 23.125C15.9167 23.125 18.4167 22.0833 20.5 20C22.5833 17.9167 23.625 15.4167 23.625 12.5C23.625 9.58333 22.5833 7.08333 20.5 5C18.4167 2.91667 15.9167 1.875 13 1.875C10.0833 1.875 7.58333 2.91667 5.5 5C3.41667 7.08333 2.375 9.58333 2.375 12.5C2.375 15.4167 3.41667 17.9167 5.5 20C7.58333 22.0833 10.0833 23.125 13 23.125Z" fill="#E85959"/>
</svg>
