<svg width="151" height="38" viewBox="0 0 151 38" fill="none" xmlns="http://www.w3.org/2000/svg">
<path fill-rule="evenodd" clip-rule="evenodd" d="M22.202 16.426H24.919C27.727 16.426 29.244 19.718 27.415 21.851L24.755 24.951C25.043 26.7896 26.014 28.452 27.474 29.606C28.9354 30.7607 30.778 31.3227 32.635 31.18C34.4921 31.0373 36.2272 30.2004 37.495 28.836C38.7618 27.4722 39.4671 25.6804 39.47 23.819C39.4697 23.4952 39.5334 23.1745 39.6572 22.8753C39.7811 22.5761 39.9627 22.3043 40.1918 22.0754C40.4209 21.8465 40.6928 21.6651 40.9921 21.5415C41.2914 21.4179 41.6122 21.3545 41.936 21.355C42.5897 21.3553 43.2166 21.6149 43.6791 22.0768C44.1416 22.5388 44.4019 23.1653 44.403 23.819C44.4028 26.4049 43.5883 28.9251 42.075 31.022C40.942 32.5888 39.4568 33.8676 37.7392 34.7555C36.0216 35.6433 34.1194 36.1154 32.186 36.1337C30.2525 36.152 28.3418 35.716 26.6077 34.8608C24.8735 34.0056 23.3645 32.7551 22.202 31.21C21.0395 32.7551 19.5305 34.0056 17.7963 34.8608C16.0622 35.716 14.1515 36.152 12.218 36.1337C10.2846 36.1154 8.38244 35.6433 6.6648 34.7555C4.94716 33.8676 3.46203 32.5888 2.329 31.022C0.815352 28.9253 0.000475171 26.4051 8.16554e-07 23.819C-0.000262974 23.4951 0.0633897 23.1743 0.187312 22.8751C0.311233 22.5758 0.492989 22.304 0.722163 22.0751C0.951337 21.8462 1.22342 21.6647 1.52284 21.5412C1.82225 21.4176 2.1431 21.3544 2.467 21.355C3.12069 21.3553 3.74757 21.6149 4.21008 22.0768C4.67259 22.5388 4.93294 23.1653 4.934 23.819C4.93123 25.6834 5.63353 27.4798 6.9 28.848C7.84563 29.8694 9.06004 30.6036 10.4039 30.9663C11.7477 31.3289 13.1666 31.3054 14.4977 30.8985C15.8289 30.4915 17.0183 29.7176 17.9296 28.6655C18.8409 27.6133 19.4372 26.3256 19.65 24.95L16.988 21.85C15.16 19.718 16.676 16.427 19.488 16.427H22.202V16.426Z" fill="#9C9C9C"/>
<path d="M33.7131 9.856C34.3607 9.85653 35.002 9.72946 35.6005 9.48207C36.199 9.23467 36.7428 8.87179 37.201 8.41416C37.6592 7.95653 38.0228 7.41311 38.2709 6.81494C38.519 6.21678 38.6468 5.57559 38.6471 4.928C38.6468 4.28042 38.519 3.63923 38.2709 3.04106C38.0228 2.4429 37.6592 1.89948 37.201 1.44184C36.7428 0.98421 36.199 0.621331 35.6005 0.373936C35.002 0.12654 34.3607 -0.000523854 33.7131 1.6232e-06C33.0656 -0.000392447 32.4244 0.126769 31.826 0.374223C31.2277 0.621677 30.6839 0.984577 30.2258 1.4422C29.7677 1.89982 29.4043 2.44319 29.1562 3.04129C28.9082 3.63939 28.7804 4.2805 28.7801 4.928C28.7804 5.5755 28.9082 6.21661 29.1562 6.81471C29.4043 7.41281 29.7677 7.95619 30.2258 8.41381C30.6839 8.87143 31.2277 9.23433 31.826 9.48178C32.4244 9.72923 33.0656 9.85639 33.7131 9.856ZM10.6901 9.856C11.3376 9.85639 11.9788 9.72923 12.5772 9.48178C13.1755 9.23433 13.7193 8.87143 14.1774 8.41381C14.6355 7.95619 14.9989 7.41281 15.247 6.81471C15.495 6.21661 15.6228 5.5755 15.6231 4.928C15.6228 4.2805 15.495 3.63939 15.247 3.04129C14.9989 2.44319 14.6355 1.89982 14.1774 1.4422C13.7193 0.984577 13.1755 0.621677 12.5772 0.374223C11.9788 0.126769 11.3376 -0.000392447 10.6901 1.6232e-06C10.0425 -0.000523854 9.40117 0.12654 8.80271 0.373936C8.20424 0.621331 7.66038 0.98421 7.20219 1.44184C6.744 1.89948 6.38046 2.4429 6.13233 3.04106C5.88421 3.63923 5.75637 4.28042 5.7561 4.928C5.75637 5.57559 5.88421 6.21678 6.13233 6.81494C6.38046 7.41311 6.744 7.95653 7.20219 8.41416C7.66038 8.87179 8.20424 9.23467 8.80271 9.48207C9.40117 9.72946 10.0425 9.85653 10.6901 9.856ZM78.6231 1.204C79.3831 1.204 80.0071 1.421 80.4951 1.855C80.9831 2.289 81.2271 2.859 81.2271 3.565V27.9C81.2271 28.633 80.9971 29.216 80.5351 29.65C80.0751 30.084 79.4641 30.301 78.7051 30.301C77.9451 30.301 77.3351 30.084 76.8731 29.651C76.4121 29.216 76.1811 28.633 76.1811 27.901V26.883C75.5841 27.995 74.7161 28.863 73.5761 29.487C72.4641 30.111 71.1891 30.423 69.7511 30.423C68.0411 30.423 66.5091 29.989 65.1531 29.121C63.8231 28.253 62.7791 27.032 62.0191 25.458C61.2861 23.858 60.9201 22.027 60.9201 19.965C60.9201 17.903 61.2861 16.099 62.0191 14.552C62.7791 13.006 63.8231 11.812 65.1531 10.971C66.4821 10.13 68.0151 9.709 69.7511 9.709C71.1891 9.709 72.4641 10.008 73.5771 10.605C74.6616 11.1748 75.5533 12.0526 76.1401 13.128V3.483C76.1401 2.805 76.3571 2.262 76.7911 1.855C77.2531 1.421 77.8631 1.204 78.6231 1.204ZM71.0941 26.476C72.7221 26.476 73.9701 25.92 74.8381 24.807C75.7331 23.695 76.1811 22.107 76.1811 20.046C76.1811 17.984 75.7331 16.41 74.8381 15.326C73.9701 14.213 72.7361 13.656 71.1351 13.656C69.5071 13.656 68.2451 14.199 67.3501 15.285C66.4551 16.37 66.0071 17.93 66.0071 19.965C66.0071 22.027 66.4551 23.627 67.3501 24.767C68.2451 25.907 69.4931 26.476 71.0941 26.476ZM95.5351 30.423C93.5011 30.423 91.7101 30.003 90.1641 29.162C88.6441 28.321 87.4641 27.114 86.6231 25.54C85.7821 23.966 85.3611 22.135 85.3611 20.046C85.3611 17.957 85.7811 16.139 86.6231 14.593C87.4641 13.019 88.6441 11.812 90.1631 10.971C91.7101 10.13 93.5011 9.709 95.5351 9.709C97.5701 9.709 99.3471 10.129 100.866 10.971C102.389 11.7877 103.625 13.0519 104.407 14.593C105.248 16.139 105.669 17.957 105.669 20.046C105.669 22.136 105.248 23.966 104.407 25.54C103.625 27.0811 102.389 28.3453 100.866 29.162C99.3471 30.002 97.5701 30.423 95.5361 30.423H95.5351ZM95.4951 26.476C97.1501 26.476 98.4111 25.933 99.2791 24.848C100.148 23.763 100.582 22.162 100.582 20.046C100.582 17.957 100.148 16.37 99.2791 15.285C98.4111 14.172 97.1631 13.616 95.5351 13.616C93.9081 13.616 92.6451 14.172 91.7511 15.285C90.8831 16.37 90.4481 17.957 90.4481 20.046C90.4481 22.162 90.8821 23.763 91.7511 24.848C92.6191 25.933 93.8671 26.476 95.4951 26.476ZM126.716 9.791C127.476 9.791 128.086 10.008 128.547 10.441C129.009 10.876 129.239 11.459 129.239 12.191V28.266C129.239 31.386 128.371 33.746 126.635 35.348C124.898 36.948 122.335 37.748 118.943 37.748C115.986 37.748 113.517 37.193 111.537 36.08C110.533 35.483 110.031 34.764 110.031 33.923C110.031 33.326 110.167 32.852 110.438 32.499C110.736 32.146 111.116 31.969 111.577 31.969C111.822 31.969 112.12 32.024 112.473 32.133C112.825 32.268 113.192 32.418 113.571 32.58C114.421 32.9415 115.291 33.254 116.176 33.516C116.963 33.733 117.858 33.842 118.862 33.842C122.416 33.842 124.193 32.106 124.193 28.632V26.028C123.596 27.141 122.728 28.008 121.589 28.633C120.449 29.23 119.147 29.528 117.682 29.528C115.945 29.528 114.399 29.121 113.042 28.308C111.713 27.466 110.669 26.3 109.909 24.808C109.149 23.315 108.769 21.593 108.769 19.639C108.769 17.686 109.136 15.963 109.868 14.471C110.628 12.951 111.686 11.785 113.042 10.971C114.399 10.13 115.945 9.709 117.682 9.709C119.147 9.709 120.449 10.021 121.589 10.645C122.699 11.2132 123.608 12.1081 124.193 13.209V12.151C124.193 11.446 124.424 10.876 124.885 10.441C125.346 10.008 125.957 9.791 126.716 9.791ZM119.025 25.581C120.653 25.581 121.914 25.051 122.809 23.994C123.732 22.935 124.193 21.484 124.193 19.639C124.193 17.767 123.732 16.302 122.809 15.244C121.914 14.186 120.653 13.657 119.025 13.657C117.424 13.657 116.162 14.186 115.24 15.244C114.318 16.302 113.856 17.767 113.856 19.639C113.856 21.484 114.318 22.935 115.24 23.994C116.162 25.052 117.424 25.581 119.025 25.581ZM141.711 30.423C138.754 30.423 136.367 29.84 134.549 28.673C133.681 28.158 133.247 27.425 133.247 26.476C133.247 25.933 133.396 25.499 133.694 25.174C133.993 24.821 134.359 24.644 134.793 24.644C135.254 24.644 135.892 24.862 136.706 25.296C137.574 25.703 138.361 26.015 139.066 26.232C139.799 26.449 140.721 26.557 141.833 26.557C142.973 26.557 143.855 26.367 144.479 25.987C145.13 25.607 145.455 25.079 145.455 24.4C145.455 23.94 145.32 23.573 145.048 23.302C144.804 23.03 144.343 22.786 143.665 22.569C143.013 22.325 142.01 22.054 140.653 21.755C138.239 21.267 136.502 20.575 135.444 19.68C134.413 18.785 133.898 17.55 133.898 15.977C133.898 14.783 134.25 13.711 134.956 12.761C135.661 11.785 136.624 11.039 137.845 10.523C139.093 9.981 140.504 9.709 142.077 9.709C143.217 9.709 144.316 9.859 145.374 10.157C146.383 10.4072 147.346 10.8192 148.223 11.377C149.091 11.92 149.525 12.639 149.525 13.535C149.525 14.077 149.376 14.539 149.077 14.918C148.779 15.271 148.412 15.448 147.978 15.448C147.68 15.448 147.381 15.393 147.083 15.285C146.726 15.1032 146.373 14.9132 146.025 14.715C145.238 14.308 144.56 14.01 143.99 13.82C143.42 13.603 142.715 13.494 141.874 13.494C140.87 13.494 140.07 13.698 139.473 14.104C138.903 14.511 138.618 15.068 138.618 15.773C138.618 16.451 138.917 16.967 139.514 17.319C140.111 17.672 141.264 18.025 142.973 18.378C144.791 18.758 146.215 19.191 147.246 19.68C148.277 20.168 149.009 20.779 149.443 21.511C149.905 22.244 150.135 23.18 150.135 24.319C150.135 26.164 149.362 27.643 147.816 28.755C146.296 29.867 144.261 30.423 141.711 30.423Z" fill="#9C9C9C"/>
</svg>
