<svg width="200" height="49" viewBox="0 0 200 49" fill="none" xmlns="http://www.w3.org/2000/svg">
<path d="M54.3807 44.0146C51.0607 44.0146 48.5157 43.4466 46.7447 42.3106C45.0047 41.1426 44.1357 39.4376 44.1357 37.1966C44.1357 36.0606 44.5157 35.1286 45.2737 34.4026C46.0647 33.6456 47.0767 33.2666 48.3097 33.2666C49.0367 33.2986 49.5897 33.4866 49.9697 33.8346C50.3497 34.1506 50.5397 34.4506 50.5397 34.7346C50.5397 34.7656 50.3807 34.8766 50.0647 35.0656C49.7487 35.2556 49.4647 35.5396 49.2107 35.9176C48.9577 36.2976 48.8307 36.8176 48.8307 37.4806C48.8307 38.9646 49.2747 40.1166 50.1597 40.9376C51.0767 41.7266 52.4837 42.1206 54.3807 42.1206C55.6777 42.1206 56.8157 41.8686 57.7967 41.3636C58.7767 40.8586 59.5197 40.1956 60.0257 39.3746C60.5627 38.5226 60.8317 37.6386 60.8317 36.7226C60.8317 35.5866 60.4997 34.6086 59.8357 33.7876C59.1908 32.956 58.3843 32.2634 57.4647 31.7516C56.5147 31.1836 55.2187 30.5356 53.5747 29.8096C51.6777 28.9576 50.1447 28.1846 48.9747 27.4896C47.799 26.7907 46.781 25.8557 45.9847 24.7436C45.1637 23.5756 44.7527 22.1396 44.7527 20.4346C44.7527 17.6886 45.6847 15.6366 47.5507 14.2796C49.4487 12.9216 51.9307 12.2436 54.9977 12.2436C57.4007 12.2436 59.4877 12.7486 61.2587 13.7586C63.0617 14.7686 63.9627 16.2526 63.9627 18.2086C63.9627 19.3456 63.5667 20.2926 62.7767 21.0506C62.0177 21.7766 61.0217 22.1396 59.7887 22.1396C59.0607 22.1076 58.5077 21.9336 58.1287 21.6186C57.7487 21.2716 57.5587 20.9556 57.5587 20.6716C57.5587 20.6396 57.7647 20.5296 58.1757 20.3396C58.6187 20.1506 58.9977 19.8666 59.3137 19.4876C59.6617 19.1086 59.8357 18.5876 59.8357 17.9256C59.8357 16.7576 59.3777 15.8416 58.4607 15.1786C57.5747 14.5156 56.4367 14.1846 55.0447 14.1846C53.1167 14.1846 51.6457 14.6426 50.6347 15.5576C49.6537 16.4416 49.1637 17.5466 49.1637 18.8726C49.1637 19.9766 49.4637 20.9086 50.0647 21.6656C50.6647 22.3916 51.6297 23.1176 52.9577 23.8436C54.1093 24.4491 55.2799 25.0177 56.4677 25.5486C58.4917 26.4636 60.0887 27.3006 61.2587 28.0586C62.4634 28.8193 63.484 29.8382 64.2467 31.0416C65.0687 32.2716 65.4807 33.8036 65.4807 35.6336C65.4807 37.2126 64.9747 38.6486 63.9627 39.9436C62.9827 41.2056 61.6377 42.1996 59.9307 42.9256C58.2547 43.6516 56.4047 44.0156 54.3807 44.0156V44.0146ZM78.3937 43.6366C76.2437 43.6366 74.5357 42.9886 73.2707 41.6946C72.0057 40.4006 71.3737 38.6956 71.3737 36.5806V27.8206C71.3737 27.0006 71.3417 26.4006 71.2787 26.0216C71.2477 25.6436 71.0577 25.3116 70.7087 25.0276C70.3617 24.7436 69.7767 24.6016 68.9547 24.6016C68.5747 24.6016 68.2907 24.5546 68.1007 24.4596C67.9107 24.3336 67.8167 24.0646 67.8167 23.6546C67.8167 23.4646 67.8797 23.2916 68.0067 23.1346C68.1327 22.9446 68.3227 22.8346 68.5757 22.8026C70.5677 22.5176 72.2757 22.1076 73.6977 21.5706C74.1407 21.4136 74.5037 21.3186 74.7887 21.2866H74.9307C75.4367 21.2866 75.6907 21.5866 75.6907 22.1866V36.5336C75.6907 37.9856 76.1487 39.1066 77.0657 39.8956C77.9546 40.643 79.0825 41.0461 80.2437 41.0316C81.7297 41.0316 82.9937 40.6686 84.0377 39.9426C85.0817 39.2166 85.7777 38.4906 86.1247 37.7646V27.8216C86.1247 27.0006 86.0937 26.4016 86.0307 26.0216C85.9987 25.6436 85.8087 25.3116 85.4607 25.0276C85.1127 24.7436 84.5277 24.6016 83.7057 24.6016C83.3257 24.6016 83.0417 24.5546 82.8527 24.4596C82.6627 24.3336 82.5677 24.0646 82.5677 23.6546C82.5677 23.4646 82.6307 23.2916 82.7577 23.1346C82.8837 22.9446 83.0737 22.8346 83.3267 22.8026C85.3187 22.5176 87.0267 22.1076 88.4497 21.5706C88.8917 21.4136 89.2557 21.3186 89.5397 21.2866H89.6827C90.1887 21.2866 90.4417 21.5866 90.4417 22.1866V38.5706C90.4417 40.4336 91.6907 41.3646 94.1887 41.3646C94.7257 41.3646 94.9947 41.6646 94.9947 42.2646C94.9947 42.7056 94.7257 42.9746 94.1887 43.0686L86.5517 43.5896C86.3307 43.5896 86.2037 43.5106 86.1717 43.3536C86.1417 43.2266 86.1247 42.9906 86.1247 42.6436V39.9906H86.0307C85.3048 40.6725 84.5612 41.3354 83.8007 41.9786C83.2317 42.4206 82.4887 42.7996 81.5707 43.1156C80.6857 43.4626 79.6267 43.6356 78.3937 43.6356V43.6366ZM97.5897 43.2106C97.4792 43.2101 97.3703 43.1841 97.2714 43.1347C97.1726 43.0853 97.0864 43.0137 97.0197 42.9256C96.8937 42.7366 96.8297 42.5156 96.8297 42.2636C96.8617 41.8536 96.9567 41.6156 97.1147 41.5536C97.2737 41.4586 97.5577 41.4106 97.9687 41.4106C98.7907 41.4106 99.3757 41.2686 99.7237 40.9846C100.072 40.7006 100.262 40.3686 100.293 39.9906C100.357 39.6106 100.388 39.0116 100.388 38.1906V27.3476C100.388 26.5276 100.357 25.9276 100.293 25.5476C100.262 25.1696 100.072 24.8376 99.7237 24.5546C99.3757 24.2706 98.7907 24.1276 97.9687 24.1276C97.5887 24.1276 97.3047 24.0806 97.1157 23.9856C96.9257 23.8596 96.8307 23.5916 96.8307 23.1806C96.8307 22.9916 96.8937 22.8176 97.0207 22.6606C97.1467 22.4706 97.3367 22.3606 97.5897 22.3286C99.6447 22.0126 101.337 21.6026 102.665 21.0976C103.203 20.9396 103.566 20.8446 103.756 20.8136H103.898C104.404 20.8136 104.657 21.1136 104.657 21.7136V24.6486H104.799C105.906 23.5436 107.029 22.6756 108.167 22.0446C109.306 21.3816 110.333 21.0506 111.25 21.0506C112.294 21.0506 113.116 21.4446 113.717 22.2336C114.349 22.9916 114.665 23.8756 114.665 24.8856C114.665 25.7696 114.397 26.5586 113.859 27.2526C113.321 27.9476 112.578 28.2946 111.63 28.2946C111.217 28.3018 110.809 28.2041 110.444 28.0106C110.128 27.8206 109.954 27.6636 109.922 27.5376C109.954 27.4746 110.112 27.2846 110.396 26.9686C110.681 26.6216 110.823 26.2276 110.823 25.7856C110.823 25.2166 110.665 24.7596 110.349 24.4126C110.064 24.0646 109.669 23.8916 109.163 23.8916C108.626 23.8916 107.946 24.1596 107.124 24.6966C106.301 25.2016 105.495 25.8486 104.705 26.6376V38.1906C104.705 39.0116 104.736 39.6106 104.799 39.9906C104.863 40.3686 105.068 40.7006 105.416 40.9846C105.764 41.2686 106.349 41.4106 107.171 41.4106H107.456C107.709 41.4106 107.898 41.4586 108.025 41.5526C108.151 41.6476 108.23 41.8846 108.262 42.2626C108.262 42.5156 108.199 42.7366 108.072 42.9256C107.946 43.1156 107.756 43.2106 107.503 43.2106C105.844 43.1205 104.184 43.0728 102.523 43.0676C101.1 43.0676 99.4557 43.1156 97.5897 43.2096V43.2106ZM171.257 43.6366C169.107 43.6366 167.194 43.1306 165.518 42.1206C163.842 41.0796 162.53 39.7216 161.581 38.0486C160.676 36.3932 160.204 34.5368 160.206 32.6506C160.206 30.2836 160.759 28.2316 161.866 26.4956C162.973 24.7276 164.38 23.3856 166.087 22.4706C167.795 21.5236 169.518 21.0506 171.257 21.0506C173.408 21.0506 175.321 21.5706 176.997 22.6126C178.641 23.5893 179.986 24.9976 180.886 26.6846C181.822 28.3117 182.313 30.1571 182.309 32.0346C182.309 34.4026 181.74 36.4706 180.602 38.2386C179.495 39.9746 178.088 41.3156 176.38 42.2626C174.673 43.1786 172.965 43.6366 171.257 43.6366ZM171.257 41.8846C173.408 41.8846 174.973 40.9686 175.953 39.1376C176.965 37.3076 177.471 34.9396 177.471 32.0356C177.471 29.3206 176.949 27.1116 175.906 25.4056C174.894 23.6706 173.344 22.8026 171.257 22.8026C169.076 22.8026 167.495 23.7026 166.514 25.5016C165.534 27.3006 165.044 29.6516 165.044 32.5566C165.044 35.2706 165.55 37.5126 166.562 39.2796C167.574 41.0166 169.139 41.8846 171.257 41.8846ZM194.261 43.8726C192.711 43.8726 191.383 43.3046 190.276 42.1686C189.17 41.0316 188.616 39.4066 188.616 37.2916V23.3706L185.865 23.4656C185.773 23.4663 185.682 23.4453 185.599 23.4041C185.517 23.3629 185.445 23.3027 185.391 23.2286C185.266 23.0473 185.2 22.8324 185.201 22.6126C185.201 22.3286 185.249 22.0926 185.343 21.9026C185.47 21.6816 185.644 21.5556 185.865 21.5236C186.972 21.3036 187.826 20.9556 188.427 20.4826C189.059 19.9766 189.518 19.4406 189.802 18.8726C190.087 18.2726 190.435 17.3726 190.846 16.1726C191.004 15.7626 191.352 15.5576 191.889 15.5576C192.11 15.5576 192.332 15.6206 192.553 15.7476C192.774 15.8416 192.885 15.9996 192.885 16.2206L192.553 21.6186L198.103 21.2866H198.198C198.609 21.2866 198.814 21.5866 198.814 22.1866C198.814 22.5336 198.751 22.8656 198.624 23.1806C198.53 23.4656 198.403 23.6076 198.245 23.6076L192.933 23.4656V37.8596C192.933 38.9016 193.138 39.7696 193.549 40.4636C193.992 41.1586 194.703 41.5056 195.684 41.5056C196.664 41.5056 197.534 41.3316 198.292 40.9846C198.704 40.8266 198.956 40.7476 199.051 40.7476C199.273 40.7476 199.447 40.8426 199.573 41.0316C199.7 41.1896 199.826 41.4116 199.953 41.6946C199.986 41.769 200.002 41.85 200 41.9316C200 42.0576 199.905 42.1996 199.715 42.3576C198.798 42.9576 197.929 43.3526 197.107 43.5416C196.316 43.7616 195.367 43.8726 194.261 43.8726ZM117.597 42.9256C117.723 43.1156 117.913 43.2096 118.166 43.2096C119.809 43.1194 121.453 43.072 123.099 43.0676C125.218 43.0676 127.194 43.1156 129.028 43.2096C129.132 43.2119 129.235 43.187 129.327 43.1371C129.418 43.0873 129.495 43.0144 129.55 42.9256C129.676 42.7356 129.739 42.5156 129.739 42.2626C129.708 41.8846 129.629 41.6476 129.502 41.5526C129.407 41.4586 129.218 41.4106 128.933 41.4106H128.648C127.605 41.4106 126.862 41.3316 126.419 41.1736C125.976 41.0166 125.676 40.7316 125.518 40.3216C125.36 39.8796 125.281 39.1696 125.281 38.1916V23.4636H130.309C130.419 23.463 130.528 23.4372 130.626 23.3879C130.725 23.3387 130.811 23.2674 130.878 23.1796C131.036 22.9906 131.115 22.7696 131.115 22.5166C131.083 22.1386 130.988 21.9016 130.83 21.8066C130.704 21.6806 130.498 21.6166 130.214 21.6166H125.281V18.7766C125.281 17.2616 125.344 15.9356 125.47 14.7986C125.588 13.6571 125.961 12.5567 126.561 11.5786C127.162 10.6006 128.095 10.1116 129.36 10.1116C129.505 10.1116 129.646 10.1196 129.782 10.1366C129.764 9.60611 129.799 9.07518 129.886 8.55158C129.821 8.5498 129.756 8.5488 129.692 8.54858C126.909 8.61158 124.743 9.66858 123.194 11.7216C121.676 13.7416 120.917 16.3776 120.917 19.6286V21.6176H118.071C117.66 21.6176 117.375 21.6646 117.217 21.7596C117.059 21.8226 116.964 22.0756 116.933 22.5166C116.933 22.7696 116.996 22.9906 117.122 23.1796C117.281 23.3696 117.486 23.4646 117.739 23.4646H120.917V38.1906C120.917 39.0436 120.885 39.6586 120.822 40.0376C120.791 40.3846 120.601 40.7006 120.253 40.9846C119.905 41.2686 119.32 41.4106 118.498 41.4106C118.087 41.4106 117.802 41.4586 117.644 41.5526C117.518 41.6156 117.439 41.8526 117.407 42.2626C117.407 42.5156 117.47 42.7366 117.597 42.9256Z" fill="#9C9C9C"/>
<path fill-rule="evenodd" clip-rule="evenodd" d="M142.952 9.86549C142.951 10.5569 142.814 11.2414 142.549 11.8799C142.284 12.5185 141.895 13.0985 141.406 13.5869C140.917 14.0754 140.336 14.4626 139.697 14.7266C139.058 14.9906 138.373 15.1261 137.682 15.1255C136.285 15.1265 134.946 14.573 133.958 13.5866C132.969 12.6003 132.413 11.2618 132.412 9.86549C132.412 9.17395 132.549 8.48928 132.814 7.85058C133.079 7.21188 133.468 6.63166 133.957 6.14303C134.446 5.65441 135.027 5.26696 135.666 5.00281C136.305 4.73865 136.99 4.60296 137.682 4.60349C138.373 4.60283 139.058 4.73843 139.697 5.00254C140.337 5.26665 140.917 5.65409 141.407 6.14274C141.896 6.63139 142.285 7.21167 142.55 7.85042C142.815 8.48918 142.951 9.17391 142.952 9.86549ZM137.682 12.4955C138.027 12.4959 138.37 12.4282 138.689 12.2962C139.009 12.1642 139.299 11.9706 139.544 11.7264C139.789 11.4821 139.983 11.1921 140.116 10.8728C140.248 10.5535 140.316 10.2112 140.317 9.86549C140.317 9.51968 140.248 9.17729 140.116 8.85788C139.983 8.53847 139.789 8.2483 139.544 8.00397C139.3 7.75963 139.009 7.56591 138.69 7.43388C138.37 7.30185 138.028 7.23409 137.682 7.23449C136.984 7.23422 136.314 7.51106 135.82 8.0042C135.326 8.49733 135.048 9.16643 135.047 9.86449C135.048 10.5627 135.326 11.2321 135.82 11.7254C136.314 12.2188 136.984 12.4958 137.682 12.4955ZM135.372 17.4145V42.7845C135.372 43.0675 135.452 43.2885 135.61 43.4465C135.768 43.6365 135.989 43.7305 136.274 43.7305C136.558 43.7305 136.795 43.6045 136.985 43.3525C137.175 43.1315 137.349 42.7995 137.507 42.3575C137.665 41.9155 137.807 41.5685 137.934 41.3155H138.171C140.226 42.8625 142.661 43.6355 145.475 43.6355C147.373 43.6355 149.159 43.1305 150.835 42.1205C152.511 41.1105 153.839 39.7375 154.82 38.0005C155.831 36.2335 156.337 34.2925 156.337 32.1775C156.337 30.0305 155.895 28.1215 155.009 26.4475C154.156 24.7435 152.97 23.4175 151.452 22.4705C149.934 21.5235 148.242 21.0505 146.377 21.0505C145.238 21.0505 144.084 21.2865 142.914 21.7605C141.776 22.2025 140.748 22.8805 139.831 23.7965H139.689V17.5005C138.269 17.869 136.775 17.8393 135.372 17.4145ZM149.697 39.4215C148.527 41.1585 146.977 42.0265 145.049 42.0265C144.037 42.0265 143.136 41.8055 142.345 41.3635C141.586 40.9215 140.969 40.4005 140.495 39.8005C140.052 39.1695 139.784 38.6005 139.689 38.0965V25.5965C141.048 24.1435 142.724 23.4175 144.717 23.4175C146.962 23.4175 148.653 24.3015 149.792 26.0695C150.93 27.8055 151.499 29.9045 151.499 32.3665C151.499 35.3025 150.899 37.6545 149.697 39.4215ZM12.6997 0.367487C13.0352 0.128459 13.4368 0 13.8487 0C14.2606 0 14.6623 0.128459 14.9977 0.367487C23.5577 6.47149 27.4377 13.7885 27.6827 24.2875C27.7957 29.3005 27.3127 33.8905 25.8417 37.8555C24.3317 41.8235 21.6487 45.4885 17.6987 48.5845C17.4528 48.7756 17.1652 48.906 16.8594 48.9651C16.5536 49.0241 16.2382 49.0102 15.9387 48.9245C14.7287 48.5775 14.5227 47.1455 13.8487 46.2535C13.1747 47.1455 12.9707 48.5765 11.7587 48.9235C11.4594 49.0091 11.1442 49.0229 10.8386 48.9638C10.5329 48.9047 10.2456 48.7744 9.99973 48.5835C6.04973 45.4885 3.36573 41.8235 1.85673 37.8555C0.386726 33.8905 -0.0972739 29.3005 0.0157261 24.2875C0.259726 13.7885 4.13973 6.47049 12.6997 0.367487ZM17.1257 44.0625C19.5977 41.7925 21.0877 39.3175 22.1397 36.4705C23.4647 32.9905 23.8467 29.1445 23.7317 24.3795C23.5417 16.1925 21.6217 10.8655 15.8087 5.91949V20.3875C18.0817 20.9715 19.1017 23.1975 19.1017 25.6475C19.1017 28.0995 18.0817 30.3255 15.8087 30.9095V42.7465C15.8087 42.7465 16.8647 43.7195 17.1257 44.0625ZM10.5377 44.0625C8.06573 41.7925 6.61073 39.3175 5.55773 36.4705C4.23373 32.9905 3.85173 29.1445 3.96773 24.3795C4.15773 16.2095 6.06673 10.8595 11.8557 5.91949V20.3875C9.58273 20.9715 8.56173 23.1975 8.56173 25.6475C8.56173 28.0995 9.58173 30.3255 11.8557 30.9095V42.7465C11.8557 42.7465 10.7897 43.7315 10.5377 44.0625ZM13.8317 23.0175C13.1336 23.017 12.4638 23.2937 11.9697 23.7869C11.4756 24.2801 11.1975 24.9493 11.1967 25.6475C11.1967 27.1015 12.3767 28.2785 13.8317 28.2785C14.5299 28.279 15.1996 28.0023 15.6938 27.5091C16.1879 27.0159 16.4659 26.3466 16.4667 25.6485C16.4667 24.1955 15.2867 23.0185 13.8317 23.0185V23.0175Z" fill="#9C9C9C"/>
</svg>
