<svg width="149" height="44" viewBox="0 0 149 44" fill="none" xmlns="http://www.w3.org/2000/svg">
<path d="M0.135986 0.759766H13.576C15.944 0.759766 18.152 1.07977 20.2 1.71976C22.248 2.35976 23.9013 3.42643 25.16 4.91977C26.44 6.4131 27.08 8.45043 27.08 11.0318C27.08 12.7598 26.7493 14.3064 26.088 15.6718C25.4267 17.0371 24.584 18.1571 23.56 19.0318C22.536 19.8851 21.4587 20.4291 20.328 20.6638C21.288 20.7704 22.2693 21.0584 23.272 21.5278C24.2747 21.9971 25.2027 22.6478 26.056 23.4798C26.9093 24.3118 27.592 25.3571 28.104 26.6158C28.6373 27.8744 28.904 29.3464 28.904 31.0318C28.904 33.3784 28.392 35.4584 27.368 37.2718C26.3653 39.0638 24.872 40.4718 22.888 41.4958C20.9253 42.4984 18.4827 42.9998 15.56 42.9998H0.135986V0.759766ZM8.13599 36.5358H13.928C15.5493 36.5358 16.84 36.2691 17.8 35.7358C18.7813 35.2024 19.4853 34.4771 19.912 33.5598C20.3387 32.6424 20.552 31.5971 20.552 30.4238C20.552 28.5464 19.9547 27.1064 18.76 26.1038C17.5653 25.1011 15.8693 24.5998 13.672 24.5998H8.13599V36.5358ZM8.13599 18.2638H13.224C14.5467 18.2638 15.6347 18.0078 16.488 17.4958C17.3627 16.9624 18.024 16.2584 18.472 15.3838C18.92 14.4878 19.144 13.5171 19.144 12.4718C19.144 10.4664 18.5573 9.09043 17.384 8.34377C16.232 7.5971 14.664 7.22377 12.68 7.22377H8.13599V18.2638Z" fill="white"/>
<path d="M41.117 31.6718C41.181 32.8664 41.501 33.9331 42.077 34.8718C42.653 35.8104 43.485 36.5464 44.573 37.0798C45.6823 37.6131 47.005 37.8798 48.541 37.8798C49.9277 37.8798 51.1437 37.7091 52.189 37.3678C53.2557 37.0264 54.1517 36.6104 54.877 36.1198C55.6237 35.6078 56.1783 35.1171 56.541 34.6478L59.901 39.6398C59.3037 40.3864 58.5037 41.0798 57.501 41.7198C56.5197 42.3384 55.261 42.8291 53.725 43.1918C52.2103 43.5758 50.3117 43.7678 48.029 43.7678C45.149 43.7678 42.621 43.2024 40.445 42.0718C38.269 40.9411 36.573 39.3091 35.357 37.1758C34.141 35.0424 33.533 32.5038 33.533 29.5598C33.533 26.9998 34.077 24.6958 35.165 22.6478C36.253 20.5784 37.8317 18.9464 39.901 17.7518C41.9917 16.5571 44.4983 15.9598 47.421 15.9598C50.173 15.9598 52.5517 16.4931 54.557 17.5598C56.5837 18.6051 58.1517 20.1411 59.261 22.1678C60.3703 24.1944 60.925 26.6691 60.925 29.5918C60.925 29.7624 60.9143 30.1144 60.893 30.6478C60.893 31.1598 60.8717 31.5011 60.829 31.6718H41.117ZM53.309 26.6478C53.2877 25.9651 53.0743 25.2291 52.669 24.4398C52.285 23.6504 51.677 22.9784 50.845 22.4238C50.013 21.8691 48.9037 21.5918 47.517 21.5918C46.1303 21.5918 44.989 21.8584 44.093 22.3918C43.2183 22.9251 42.557 23.5864 42.109 24.3758C41.661 25.1438 41.405 25.9011 41.341 26.6478H53.309Z" fill="white"/>
<path d="M87.0535 42.9998V38.4238C86.8615 38.8931 86.3708 39.5544 85.5815 40.4078C84.7922 41.2611 83.7255 42.0398 82.3815 42.7438C81.0588 43.4264 79.5015 43.7678 77.7095 43.7678C75.1922 43.7678 72.9628 43.1704 71.0215 41.9758C69.0802 40.7598 67.5548 39.1064 66.4455 37.0158C65.3575 34.9038 64.8135 32.5251 64.8135 29.8798C64.8135 27.2344 65.3575 24.8664 66.4455 22.7758C67.5548 20.6638 69.0802 18.9998 71.0215 17.7838C72.9628 16.5678 75.1922 15.9598 77.7095 15.9598C79.4588 15.9598 80.9735 16.2584 82.2535 16.8558C83.5548 17.4318 84.6002 18.1144 85.3895 18.9038C86.2002 19.6718 86.7228 20.3651 86.9575 20.9838V16.7278H95.0215V42.9998H87.0535ZM72.7815 29.8798C72.7815 31.3518 73.1122 32.6531 73.7735 33.7838C74.4348 34.8931 75.3095 35.7571 76.3975 36.3758C77.4855 36.9944 78.6695 37.3038 79.9495 37.3038C81.2935 37.3038 82.4882 36.9944 83.5335 36.3758C84.5788 35.7358 85.4002 34.8611 85.9975 33.7518C86.6162 32.6211 86.9255 31.3304 86.9255 29.8798C86.9255 28.4291 86.6162 27.1491 85.9975 26.0398C85.4002 24.9091 84.5788 24.0238 83.5335 23.3838C82.4882 22.7438 81.2935 22.4238 79.9495 22.4238C78.6695 22.4238 77.4855 22.7438 76.3975 23.3838C75.3095 24.0024 74.4348 24.8771 73.7735 26.0078C73.1122 27.1171 72.7815 28.4078 72.7815 29.8798Z" fill="white"/>
<path d="M99.454 16.7278H104.19V5.94376H112.254V16.7278H118.462V23.4798H112.254V32.9838C112.254 34.2424 112.457 35.2238 112.862 35.9278C113.267 36.6104 113.907 36.9518 114.782 36.9518C115.443 36.9518 115.987 36.8238 116.414 36.5678C116.841 36.2904 117.097 36.0984 117.182 35.9918L120.062 41.8158C119.934 41.9438 119.518 42.1678 118.814 42.4878C118.131 42.8078 117.246 43.0958 116.158 43.3518C115.091 43.6291 113.886 43.7678 112.542 43.7678C110.131 43.7678 108.137 43.0744 106.558 41.6878C104.979 40.2798 104.19 38.1038 104.19 35.1598V23.4798H99.454V16.7278Z" fill="white"/>
<path d="M123.799 16.7278H148.631L134.519 37.2078H147.735V42.9998H121.815L135.927 22.4878H123.799V16.7278Z" fill="white"/>
</svg>
